Po joins forces with a group of new kung-fu masters to take on an old enemy with a deadly new weapon.

SAMPLE INCLUDED: 60s11.1mb

SOURCE: Kung.Fu.Panda.2.720p.BluRay.x264-MHD

General
*******
Format : Matroska
Format version : Version 2
File size : 998 MiB
Duration : 1h 30mn
Overall bit rate : 1 544 Kbps
Encoded date : UTC 2011-10-15 22:38:57
Writing application : mkvmerge v5.0.0 ('Die Wahre Liebe') built on Sep 25 2011 20:33:49
Writing library : libebml v1.2.2 + libmatroska v1.3.0

Video
*****
ID : 1
Format : AVC
Format/Info : Advanced Video Codec
Format profile : Main@L3.0
Format settings, CABAC : Yes
Format settings, ReFrames : 4 frames
Muxing mode : Header stripping
Codec ID : V_MPEG4/ISO/AVC
Duration : 1h 30mn
Bit rate : 1 159 Kbps
Width : 720 pixels
Height : 304 pixels
Display aspect ratio : 2.35:1
Frame rate mode : Variable
Frame rate : 23.976 fps
Color space : YUV
Chroma subsampling : 4:2:0
Bit depth : 8 bits
Scan type : Progressive
Bits/(Pixel*Frame) : 0.221
Stream size : 730 MiB (73%)
Writing library : x264 core 112

Audio
*****
ID : 2
Format : AC-3
Format/Info : Audio Coding 3
Mode extension : CM (complete main)
Muxing mode : Header stripping
Codec ID : A_AC3
Duration : 1h 30mn
Bit rate mode : Constant
Bit rate : 384 Kbps
Channel(s) : 6 channels
Channel positions : Front: L C R, Side: L R, LFE
Sampling rate : 48.0 KHz
Bit depth : 16 bits
Compression mode : Lossy
Stream size : 248 MiB (25%)
Language : English

Text(subtitles)
***************
ID : 3
Format : UTF-8
Codec ID : S_TEXT/UTF8
Codec ID/Info : UTF-8 Plain Text
Language : Romanian


PLEASE SEED FOR AS LONG AS POSSIBLE!